<svg width="60" height="60" viewBox="0 0 60 60" fill="none" xmlns="http://www.w3.org/2000/svg">
<path d="M25.3398 1.12838C28.2235 -0.376126 31.7765 -0.376126 34.6602 1.12838L55.3398 11.9173C58.2235 13.4218 60 16.2023 60 19.2113V40.7887C60 43.7977 58.2235 46.5782 55.3398 48.0827L34.6602 58.8716C31.7765 60.3761 28.2235 60.3761 25.3398 58.8716L4.66022 48.0827C1.77648 46.5782 0 43.7977 0 40.7887V19.2113C0 16.2023 1.77648 13.4218 4.66022 11.9173L25.3398 1.12838Z" fill="white"/>
<path d="M31.3977 10.1582C31.3977 7.79517 34.2146 6.30779 36.4926 7.46754L51.7159 15.2177C52.7909 15.7649 53.4561 16.7933 53.4561 17.9081V40.8586C53.4561 43.2216 50.6391 44.709 48.3612 43.5492L33.1378 35.799C32.0629 35.2518 31.3977 34.2235 31.3977 33.1087V10.1582Z" fill="black"/>
<path d="M18.6592 14.6494C18.6592 12.2864 21.4761 10.799 23.754 11.9588L38.9774 19.7089C40.0524 20.2561 40.7175 21.2845 40.7175 22.3993V45.3498C40.7175 47.7128 37.9006 49.2002 35.6227 48.0404L20.3993 40.2902C19.3244 39.7431 18.6592 38.7147 18.6592 37.5999V14.6494Z" fill="black"/>
<path d="M5.92212 18.2998C5.92212 15.9368 8.73907 14.4494 11.017 15.6091L26.2404 23.3593C27.3153 23.9065 27.9805 24.9349 27.9805 26.0497V49.0002C27.9805 51.3632 25.1635 52.8506 22.8856 51.6908L7.66224 43.9406C6.58729 43.3935 5.92212 42.3651 5.92212 41.2503V18.2998Z" fill="black"/>
<path fill-rule="evenodd" clip-rule="evenodd" d="M39.1647 35.8569L34.3805 33.4212C33.3056 32.874 32.6404 31.8456 32.6404 30.7308V19.1914L37.4246 21.6271C38.4995 22.1743 39.1647 23.2027 39.1647 24.3175V35.8569Z" fill="white"/>
<path fill-rule="evenodd" clip-rule="evenodd" d="M26.4737 39.6576L21.643 37.1983C20.568 36.6511 19.9028 35.6227 19.9028 34.5076V22.2793L24.7336 24.7386C25.8086 25.2861 26.4737 26.3144 26.4737 27.4292V39.6576Z" fill="white"/>
</svg>
